# xmcd
#
# Track frame offsets:
#	150
#	22131
#	43154
#	70218
#	93635
#	115756
#	138287
#	156808
#
# Disc length: 2480 seconds
#
# Revision: 0
# Processed by: cddbd v1.5.1PL2 Copyright (c) Steve Scherf et al.
# Submitted via: dBpowerAMP V4.0
#
DISCID=6c09ae08
DTITLE=Taj Mahal - Music Fuh Ya' Musica Para Tu
DYEAR=2004
DGENRE=Blues
TTITLE0=You Got It
TTITLE1=Frieght Train
TTITLE2=Baby, You're My Destiny
TTITLE3=Sailin' Into Walker's Cay
TTITLE4=Truck Driver's Two Step
TTITLE5=The Four Mills Brothers
TTITLE6=Honey Babe
TTITLE7=Curry
EXTD=
EXTT0=
EXTT1=
EXTT2=
EXTT3=
EXTT4=
EXTT5=
EXTT6=
EXTT7=
PLAYORDER=
